<svg width="200" height="200" viewBox="0 0 200 200" fill="none" xmlns="http://www.w3.org/2000/svg">
  <circle cx="100" cy="100" r="95" fill="#f8f9fa" stroke="#3498db" stroke-width="10"/>
  
  <!-- Baseball -->
  <g transform="translate(40, 60) scale(0.8)">
    <circle cx="30" cy="30" r="25" stroke="#e74c3c" stroke-width="2" fill="white" />
    <path d="M10 10L50 50" stroke="#e74c3c" stroke-width="2" />
    <path d="M50 10L10 50" stroke="#e74c3c" stroke-width="2" />
    <path d="M30 5C35 10 35 20 30 30C25 40 25 50 30 55" stroke="#e74c3c" stroke-width="2" />
    <path d="M55 30C50 35 40 35 30 30C20 25 10 25 5 30" stroke="#e74c3c" stroke-width="2" />
  </g>
  
  <!-- Basketball -->
  <g transform="translate(100, 60) scale(0.8)">
    <circle cx="30" cy="30" r="25" stroke="#f39c12" stroke-width="2" fill="#e67e22" />
    <path d="M30 5C45 20 45 40 30 55" stroke="black" stroke-width="2" />
    <path d="M30 5C15 20 15 40 30 55" stroke="black" stroke-width="2" />
    <path d="M5 30C20 15 40 15 55 30" stroke="black" stroke-width="2" />
    <path d="M5 30C20 45 40 45 55 30" stroke="black" stroke-width="2" />
  </g>
  
  <!-- Football -->
  <g transform="translate(70, 110) scale(0.8)">
    <ellipse cx="30" cy="30" rx="25" ry="15" transform="rotate(45 30 30)" fill="#8e44ad" stroke="#6c3483" stroke-width="2" />
    <path d="M30 15V45" stroke="white" stroke-width="2" />
    <path d="M20 20L40 40" stroke="white" stroke-width="2" />
    <path d="M20 40L40 20" stroke="white" stroke-width="2" />
  </g>
  
  <!-- Text -->
  <text x="100" y="170" font-family="Arial, sans-serif" font-size="16" font-weight="bold" text-anchor="middle" fill="#2c3e50">SPORTS TRIVIA</text>
</svg> 